{
  "accessors": [
    {
      "bufferView": 2,
      "componentType": 5126,
      "count": 63611,
      "max": [
        0.8971379995346069,
        1.9850000143051147,
        1.3680399656295776
      ],
      "min": [
        -0.8971379995346069,
        -1.5723600387573242,
        -0.42887499928474426
      ],
      "type": "VEC3"
    },
    {
      "bufferView": 2,
      "byteOffset": 763332,
      "componentType": 5126,
      "count": 63611,
      "max": [
        1.0,
        1.0,
        1.0
      ],
      "min": [
        -1.0,
        -1.0,
        -1.0
      ],
      "type": "VEC3"
    },
    {
      "bufferView": 3,
      "componentType": 5126,
      "count": 63611,
      "max": [
        1.0,
        1.0,
        1.0,
        1.0
      ],
      "min": [
        -1.0,
        -1.0,
        -1.0,
        -1.0
      ],
      "type": "VEC4"
    },
    {
      "bufferView": 1,
      "componentType": 5126,
      "count": 63611,
      "max": [
        0.9985899925231934,
        0.9986820220947266
      ],
      "min": [
        0.000956328003667295,
        0.0002825029951054603
      ],
      "type": "VEC2"
    },
    {
      "bufferView": 0,
      "componentType": 5125,
      "count": 289578,
      "type": "SCALAR"
    },
    {
      "bufferView": 2,
      "byteOffset": 1526664,
      "componentType": 5126,
      "count": 12,
      "max": [
        0.8639119863510132,
        -0.9993789792060852,
        -0.05476589873433113
      ],
      "min": [
        -0.8639119863510132,
        -1.5086699724197388,
        -0.1340000033378601
      ],
      "type": "VEC3"
    },
    {
      "bufferView": 2,
      "byteOffset": 1526808,
      "componentType": 5126,
      "count": 12,
      "max": [
        0.9359968900680542,
        -0.12373098731040955,
        -0.3295459747314453
      ],
      "min": [
        -0.9359968900680542,
        -0.13273897767066956,
        -0.37111696600914
      ],
      "type": "VEC3"
    },
    {
      "bufferView": 1,
      "byteOffset": 508888,
      "componentType": 5126,
      "count": 12,
      "max": [
        0.9892590045928955,
        0.994625985622406
      ],
      "min": [
        0.013131200335919857,
        0.6650840044021606
      ],
      "type": "VEC2"
    },
    {
      "bufferView": 0,
      "byteOffset": 1158312,
      "componentType": 5125,
      "count": 24,
      "type": "SCALAR"
    }
  ],
  "asset": {
    "extras": {
      "author": "BoatUS Foundation (https://sketchfab.com/boatusfoundation)",
      "license": "CC-BY-4.0 (http://creativecommons.org/licenses/by/4.0/)",
      "source": "https://sketchfab.com/3d-models/rascal-mini-airboat-9059a19d244a424c8bf60a9314743c8e",
      "title": "Rascal Mini Airboat"
    },
    "generator": "Sketchfab-12.67.0",
    "version": "2.0"
  },
  "bufferViews": [
    {
      "buffer": 0,
      "byteLength": 1158408,
      "name": "floatBufferViews",
      "target": 34963
    },
    {
      "buffer": 0,
      "byteLength": 508984,
      "byteOffset": 1158408,
      "byteStride": 8,
      "name": "floatBufferViews",
      "target": 34962
    },
    {
      "buffer": 0,
      "byteLength": 1526952,
      "byteOffset": 1667392,
      "byteStride": 12,
      "name": "floatBufferViews",
      "target": 34962
    },
    {
      "buffer": 0,
      "byteLength": 1017776,
      "byteOffset": 3194344,
      "byteStride": 16,
      "name": "floatBufferViews",
      "target": 34962
    }
  ],
  "buffers": [
    {
      "byteLength": 4212120,
      "uri": "scene.bin"
    }
  ],
  "images": [
    {
      "uri": "textures/Airboat_Base_baseColor.png"
    },
    {
      "uri": "textures/Airboat_Base_metallicRoughness.png"
    },
    {
      "uri": "textures/Airboat_Base_normal.png"
    },
    {
      "uri": "textures/Airboat_Registration_baseColor.png"
    },
    {
      "uri": "textures/Airboat_Registration_metallicRoughness.png"
    }
  ],
  "materials": [
    {
      "alphaMode": "BLEND",
      "doubleSided": true,
      "name": "Airboat_Base",
      "normalTexture": {
        "index": 2
      },
      "pbrMetallicRoughness": {
        "baseColorTexture": {
          "index": 0
        },
        "metallicRoughnessTexture": {
          "index": 1
        }
      }
    },
    {
      "alphaMode": "BLEND",
      "doubleSided": true,
      "name": "Airboat_Registration",
      "pbrMetallicRoughness": {
        "baseColorTexture": {
          "index": 3
        },
        "metallicRoughnessTexture": {
          "index": 4
        }
      }
    }
  ],
  "meshes": [
    {
      "name": "Object_0",
      "primitives": [
        {
          "attributes": {
            "NORMAL": 1,
            "POSITION": 0,
            "TANGENT": 2,
            "TEXCOORD_0": 3
          },
          "indices": 4,
          "material": 0,
          "mode": 4
        }
      ]
    },
    {
      "name": "Object_1",
      "primitives": [
        {
          "attributes": {
            "NORMAL": 6,
            "POSITION": 5,
            "TEXCOORD_0": 7
          },
          "indices": 8,
          "material": 1,
          "mode": 4
        }
      ]
    }
  ],
  "nodes": [
    {
      "children": [
        1
      ],
      "matrix": [
        0.997831404209137,
        0.0,
        0.0,
        0.0,
        0.0,
        2.2156307992940704e-16,
        -0.997831404209137,
        0.0,
        0.0,
        0.997831404209137,
        2.2156307992940704e-16,
        0.0,
        0.0,
        0.0,
        0.0,
        1.0
      ],
      "name": "Sketchfab_model"
    },
    {
      "children": [
        2,
        3
      ],
      "name": "sketchfab.obj.cleaner.materialmerger.gles"
    },
    {
      "mesh": 0,
      "name": "Object_2"
    },
    {
      "mesh": 1,
      "name": "Object_3"
    }
  ],
  "samplers": [
    {
      "magFilter": 9729,
      "minFilter": 9987,
      "wrapS": 10497,
      "wrapT": 10497
    }
  ],
  "scene": 0,
  "scenes": [
    {
      "name": "Sketchfab_Scene",
      "nodes": [
        0
      ]
    }
  ],
  "textures": [
    {
      "sampler": 0,
      "source": 0
    },
    {
      "sampler": 0,
      "source": 1
    },
    {
      "sampler": 0,
      "source": 2
    },
    {
      "sampler": 0,
      "source": 3
    },
    {
      "sampler": 0,
      "source": 4
    }
  ]
}
